<svg width="63" height="87" viewBox="0 0 63 87" fill="none" xmlns="http://www.w3.org/2000/svg">
<path d="M15 86.5V71" stroke="white"/>
<path d="M11 42.5H6V52.5L10 56V65.5L21.5 77.5H42L53 65.5V56L57 52.5V42.5H53" stroke="white"/>
<path d="M0.5 38H62.5" stroke="white"/>
<path d="M2 33V32.5C2 30.2909 3.79086 28.5 6 28.5V28.5V18C6 9.71573 12.7157 3 21 3V3V11.5" stroke="white"/>
<path d="M61.5 33V32.5C61.5 30.2909 59.7091 28.5 57.5 28.5V28.5V18C57.5 9.71573 50.7843 3 42.5 3V3V11.5" stroke="white"/>
<path d="M26.5 18V0.5H37V18" stroke="white"/>
<path d="M48 70.5V86.5" stroke="white"/>
</svg>
