<svg width="62" height="87" viewBox="0 0 62 87" fill="none" xmlns="http://www.w3.org/2000/svg">
<path d="M14.5 86.5V71" stroke="#D4D6D7"/>
<path d="M10.5 42.5H5.5V52.5L9.5 56V65.5L21 77.5H41.5L52.5 65.5V56L56.5 52.5V42.5H52.5" stroke="#D4D6D7"/>
<path d="M0 38H62" stroke="#D4D6D7"/>
<path d="M1.5 33V32.5C1.5 30.2909 3.29086 28.5 5.5 28.5V28.5V18C5.5 9.71573 12.2157 3 20.5 3V3V11.5" stroke="#D4D6D7"/>
<path d="M61 33V32.5C61 30.2909 59.2091 28.5 57 28.5V28.5V18C57 9.71573 50.2843 3 42 3V3V11.5" stroke="#D4D6D7"/>
<path d="M26 18V0.5H36.5V18" stroke="#D4D6D7"/>
<path d="M47.5 70.5V86.5" stroke="#D4D6D7"/>
</svg>
