<svg width="81" height="80" viewBox="0 0 81 80" fill="none" xmlns="http://www.w3.org/2000/svg">
<path d="M0.5 10V70.5C0.500029 72.5 0.5 75 2.5 77C4.31108 78.8111 6.33331 78.8333 6.99997 79H74V73" stroke="white"/>
<path d="M17 9.5H74.5V15.5" stroke="white"/>
<path d="M18 23V54.5H37V38" stroke="white"/>
<path d="M37 43.5H44" stroke="white"/>
<path d="M49 44.5H62.5V23H18" stroke="white"/>
<path d="M36.5 23V33" stroke="white"/>
<path d="M28 54.5V65.5H54.5V45" stroke="white"/>
<path d="M69.5 60V22C69.5 20.5 70 18 73.5 18C77.5 18 78 20.3333 78 21.5V60L74 70L69.5 60Z" stroke="white"/>
<path d="M67.5 28.5H80.5" stroke="white"/>
<path d="M0.5 10.5C0.5 6.5 4 0.5 10 0.5V61.5C6.83333 61.3333 0.5 62.9 0.5 70.5" stroke="white"/>
</svg>
