<svg width="81" height="80" viewBox="0 0 81 80" fill="none" xmlns="http://www.w3.org/2000/svg">
<path d="M1 10V70.5C1.00003 72.5 1 75 3 77C4.81108 78.8111 6.83331 78.8333 7.49997 79H74.5V73" stroke="#D4D6D7"/>
<path d="M17.5 9.5H75V15.5" stroke="#D4D6D7"/>
<path d="M18.5 23V54.5H37.5V38" stroke="#D4D6D7"/>
<path d="M37.5 43.5H44.5" stroke="#D4D6D7"/>
<path d="M49.5 44.5H63V23H18.5" stroke="#D4D6D7"/>
<path d="M37 23V33" stroke="#D4D6D7"/>
<path d="M28.5 54.5V65.5H55V45" stroke="#D4D6D7"/>
<path d="M70 60V22C70 20.5 70.5 18 74 18C78 18 78.5 20.3333 78.5 21.5V60L74.5 70L70 60Z" stroke="#D4D6D7"/>
<path d="M68 28.5H81" stroke="#D4D6D7"/>
<path d="M1 10.5C1 6.5 4.5 0.5 10.5 0.5V61.5C7.33333 61.3333 1 62.9 1 70.5" stroke="#D4D6D7"/>
</svg>
