<svg width="105" height="101" viewBox="0 0 105 101" fill="none" xmlns="http://www.w3.org/2000/svg">
<path d="M61.5 73H10C5.02944 73 1 68.9706 1 64V6V6C1 2.96243 3.46243 0.5 6.5 0.5H12.5C15.2614 0.5 17.5 2.73858 17.5 5.5V65.5C17.1667 64.3333 16.0905 61.0984 12.5 60.5C9.5 60 7 60.5 5.5 62" stroke="white"/>
<path d="M33 35.5V58.5H67V36.5" stroke="white"/>
<path d="M28 35.5L49.5 18L71 35.5" stroke="white"/>
<path d="M43.5 30.5L49.5 25.5L55.5 30.5" stroke="white"/>
<path d="M43 48.5V35.5H56V48.5H43Z" stroke="white"/>
<path d="M20.5 8.5H84V58" stroke="white"/>
<rect x="65" y="61.5" width="39" height="39" stroke="white"/>
<path d="M74.5 66.5V76" stroke="white"/>
<path d="M79.25 71.25L69.75 71.25" stroke="white"/>
<path d="M94.25 86V95.5" stroke="white"/>
<path d="M99 90.75L89.5 90.75" stroke="white"/>
<path d="M79.25 90L69.75 90" stroke="white"/>
<path d="M98.5 71H89.5" stroke="white"/>
<path d="M84.5 61.5V100.5" stroke="white"/>
<path d="M65 81.5H104" stroke="white"/>
</svg>
