<svg width="104" height="101" viewBox="0 0 104 101" fill="none" xmlns="http://www.w3.org/2000/svg">
<path d="M61 73H9.5C4.52944 73 0.5 68.9706 0.5 64V6V6C0.5 2.96243 2.96243 0.5 6 0.5H12C14.7614 0.5 17 2.73858 17 5.5V65.5C16.6667 64.3333 15.5905 61.0984 12 60.5C9 60 6.5 60.5 5 62" stroke="#D4D6D7"/>
<path d="M32.5 35.5V58.5H66.5V36.5" stroke="#D4D6D7"/>
<path d="M27.5 35.5L49 18L70.5 35.5" stroke="#D4D6D7"/>
<path d="M43 30.5L49 25.5L55 30.5" stroke="#D4D6D7"/>
<path d="M42.5 48.5V35.5H55.5V48.5H42.5Z" stroke="#D4D6D7"/>
<path d="M20 8.5H83.5V58" stroke="#D4D6D7"/>
<rect x="64.5" y="61.5" width="39" height="39" stroke="#D4D6D7"/>
<path d="M74 66.5V76" stroke="#D4D6D7"/>
<path d="M78.75 71.25L69.25 71.25" stroke="#D4D6D7"/>
<path d="M93.75 86V95.5" stroke="#D4D6D7"/>
<path d="M98.5 90.75L89 90.75" stroke="#D4D6D7"/>
<path d="M78.75 90L69.25 90" stroke="#D4D6D7"/>
<path d="M98 71H89" stroke="#D4D6D7"/>
<path d="M84 61.5V100.5" stroke="#D4D6D7"/>
<path d="M64.5 81.5H103.5" stroke="#D4D6D7"/>
</svg>
