<svg width="93" height="103" viewBox="0 0 93 103" fill="none" xmlns="http://www.w3.org/2000/svg">
<path d="M25.5 36V92.5H18.5V102.5H58.5V92.5H52V36M52 36H17.5V40.5H1V24H79L91.5 36H52Z" stroke="white"/>
<path d="M25.5 24V15.5L39 1.5L52 15.5V24" stroke="white"/>
<path d="M79 36.5V53C81 53 85 53.7826 85 58.5C85 67 74 66 73.5 60" stroke="white"/>
<path d="M32 50.5L39 42.5L46 50.5" stroke="white"/>
<path d="M32 62L39 54L46 62" stroke="white"/>
<path d="M32 74L39 66L46 74" stroke="white"/>
<path d="M32 86L39 78L46 86" stroke="white"/>
<path d="M25.5 92.5H51.5" stroke="white"/>
</svg>
