<svg width="93" height="103" viewBox="0 0 93 103" fill="none" xmlns="http://www.w3.org/2000/svg">
<path d="M25 36V92.5H18V102.5H58V92.5H51.5V36M51.5 36H17V40.5H0.5V24H78.5L91 36H51.5Z" stroke="#D4D6D7"/>
<path d="M25 24V15.5L38.5 1.5L51.5 15.5V24" stroke="#D4D6D7"/>
<path d="M78.5 36.5V53C80.5 53 84.5 53.7826 84.5 58.5C84.5 67 73.5 66 73 60" stroke="#D4D6D7"/>
<path d="M31.5 50.5L38.5 42.5L45.5 50.5" stroke="#D4D6D7"/>
<path d="M31.5 62L38.5 54L45.5 62" stroke="#D4D6D7"/>
<path d="M31.5 74L38.5 66L45.5 74" stroke="#D4D6D7"/>
<path d="M31.5 86L38.5 78L45.5 86" stroke="#D4D6D7"/>
<path d="M25 92.5H51" stroke="#D4D6D7"/>
</svg>
